<svg width="34" height="36" viewBox="0 0 34 36" fill="none" xmlns="http://www.w3.org/2000/svg">
<g filter="url(#filter0_d_131_181)">
<rect x="3" y="3" width="28" height="30" rx="5" fill="white" fill-opacity="0.9" shape-rendering="crispEdges"/>
<path d="M25 11H9C7.9 11 7.01 11.9 7.01 13L7 23C7 24.1 7.9 25 9 25H25C26.1 25 27 24.1 27 23V13C27 11.9 26.1 11 25 11ZM16 14H18V16H16V14ZM16 17H18V19H16V17ZM13 14H15V16H13V14ZM13 17H15V19H13V17ZM12 19H10V17H12V19ZM12 16H10V14H12V16ZM20 23H14C13.45 23 13 22.55 13 22C13 21.45 13.45 21 14 21H20C20.55 21 21 21.45 21 22C21 22.55 20.55 23 20 23ZM21 19H19V17H21V19ZM21 16H19V14H21V16ZM24 19H22V17H24V19ZM24 16H22V14H24V16Z" fill="black" fill-opacity="0.22"/>
<path d="M7.51 13.0005V13C7.51 12.1729 8.1794 11.5 9 11.5H25C25.8239 11.5 26.5 12.1761 26.5 13V23C26.5 23.8239 25.8239 24.5 25 24.5H9C8.17622 24.5 7.50013 23.824 7.5 23.0002C7.5 23.0002 7.5 23.0001 7.5 23L7.51 13.0005ZM16 13.5H15.5H15H13H12.5H12H10H9.5V14V16V16.5V17V19V19.5H10H12H12.5H13H15H15.5H16H18H18.5H19H21H21.5H22H24H24.5V19V17V16.5V16V14V13.5H24H22H21.5H21H19H18.5H18H16ZM14 23.5H20C20.8261 23.5 21.5 22.8261 21.5 22C21.5 21.1739 20.8261 20.5 20 20.5H14C13.1739 20.5 12.5 21.1739 12.5 22C12.5 22.8261 13.1739 23.5 14 23.5Z" stroke="black" stroke-opacity="0.13"/>
<rect x="3.5" y="3.5" width="27" height="29" rx="4.5" stroke="#01EAB0" shape-rendering="crispEdges"/>
</g>
<defs>
<filter id="filter0_d_131_181" x="0" y="0" width="34" height="36" filterUnits="userSpaceOnUse" color-interpolation-filters="sRGB">
<feFlood flood-opacity="0" result="BackgroundImageFix"/>
<feColorMatrix in="SourceAlpha" type="matrix" values="0 0 0 0 0 0 0 0 0 0 0 0 0 0 0 0 0 0 127 0" result="hardAlpha"/>
<feMorphology radius="1" operator="dilate" in="SourceAlpha" result="effect1_dropShadow_131_181"/>
<feOffset/>
<feGaussianBlur stdDeviation="1"/>
<feComposite in2="hardAlpha" operator="out"/>
<feColorMatrix type="matrix" values="0 0 0 0 0.00381944 0 0 0 0 0.916667 0 0 0 0 0.688455 0 0 0 1 0"/>
<feBlend mode="normal" in2="BackgroundImageFix" result="effect1_dropShadow_131_181"/>
<feBlend mode="normal" in="SourceGraphic" in2="effect1_dropShadow_131_181" result="shape"/>
</filter>
</defs>
</svg>
