<svg width="11" height="8" viewBox="0 0 11 8" fill="none" xmlns="http://www.w3.org/2000/svg">
<path fill-rule="evenodd" clip-rule="evenodd" d="M0.292787 1.29918C0.480314 1.11171 0.734622 1.0064 0.999786 1.0064C1.26495 1.0064 1.51926 1.11171 1.70679 1.29918L4.99979 4.59219L8.29279 1.29918C8.38503 1.20367 8.49538 1.12749 8.61738 1.07508C8.73939 1.02267 8.87061 0.995088 9.00339 0.993934C9.13616 0.99278 9.26784 1.01808 9.39074 1.06836C9.51364 1.11864 9.62529 1.1929 9.71918 1.28679C9.81307 1.38068 9.88733 1.49233 9.93761 1.61523C9.98789 1.73813 10.0132 1.86981 10.012 2.00259C10.0109 2.13537 9.9833 2.26658 9.93089 2.38859C9.87848 2.51059 9.8023 2.62094 9.70679 2.71318L5.70679 6.71318C5.51926 6.90066 5.26495 7.00597 4.99979 7.00597C4.73462 7.00597 4.48031 6.90066 4.29279 6.71318L0.292787 2.71318C0.105316 2.52566 0 2.27135 0 2.00618C0 1.74102 0.105316 1.48671 0.292787 1.29918Z" fill="black"/>
</svg>
