<svg width="21" height="20" viewBox="0 0 21 20" fill="none" xmlns="http://www.w3.org/2000/svg">
<path fill-rule="evenodd" clip-rule="evenodd" d="M5.79279 7.29308C5.98031 7.10561 6.23462 7.00029 6.49979 7.00029C6.76495 7.00029 7.01926 7.10561 7.20679 7.29308L10.4998 10.5861L13.7928 7.29308C13.885 7.19757 13.9954 7.12139 14.1174 7.06898C14.2394 7.01657 14.3706 6.98898 14.5034 6.98783C14.6362 6.98668 14.7678 7.01198 14.8907 7.06226C15.0136 7.11254 15.1253 7.18679 15.2192 7.28069C15.3131 7.37458 15.3873 7.48623 15.4376 7.60913C15.4879 7.73202 15.5132 7.8637 15.512 7.99648C15.5109 8.12926 15.4833 8.26048 15.4309 8.38249C15.3785 8.50449 15.3023 8.61483 15.2068 8.70708L11.2068 12.7071C11.0193 12.8946 10.765 12.9999 10.4998 12.9999C10.2346 12.9999 9.98031 12.8946 9.79279 12.7071L5.79279 8.70708C5.60532 8.51955 5.5 8.26525 5.5 8.00008C5.5 7.73492 5.60532 7.48061 5.79279 7.29308Z" fill="white" fill-opacity="0.35"/>
</svg>
