<svg width="21" height="20" viewBox="0 0 21 20" fill="none" xmlns="http://www.w3.org/2000/svg">
<path fill-rule="evenodd" clip-rule="evenodd" d="M10.5 3C10.7652 3 11.0196 3.10536 11.2071 3.29289C11.3946 3.48043 11.5 3.73478 11.5 4V9H16.5C16.7652 9 17.0196 9.10536 17.2071 9.29289C17.3946 9.48043 17.5 9.73478 17.5 10C17.5 10.2652 17.3946 10.5196 17.2071 10.7071C17.0196 10.8946 16.7652 11 16.5 11H11.5V16C11.5 16.2652 11.3946 16.5196 11.2071 16.7071C11.0196 16.8946 10.7652 17 10.5 17C10.2348 17 9.98043 16.8946 9.79289 16.7071C9.60536 16.5196 9.5 16.2652 9.5 16V11H4.5C4.23478 11 3.98043 10.8946 3.79289 10.7071C3.60536 10.5196 3.5 10.2652 3.5 10C3.5 9.73478 3.60536 9.48043 3.79289 9.29289C3.98043 9.10536 4.23478 9 4.5 9H9.5V4C9.5 3.73478 9.60536 3.48043 9.79289 3.29289C9.98043 3.10536 10.2348 3 10.5 3Z" fill="#666666"/>
</svg>
