<svg width="320" height="2625" viewBox="0 0 320 2625" fill="none" xmlns="http://www.w3.org/2000/svg">
<g clip-path="url(#clip0_4_324)">
<path d="M402 0H-105V3603H402V0Z" fill="#001C30"/>
<g filter="url(#filter0_f_4_324)">
<path d="M-31.7666 4455.71C79.3034 4455.71 169.343 3495.91 169.343 2311.93C169.343 1127.95 79.3034 168.14 -31.7666 168.14C-142.837 168.14 -232.877 1127.95 -232.877 2311.93C-232.877 3495.91 -142.837 4455.71 -31.7666 4455.71Z" fill="#00CC99"/>
<path d="M-46.9767 3296.75C64.0934 3296.75 154.133 2336.94 154.133 1152.96C154.133 -31.0191 64.0934 -990.825 -46.9767 -990.825C-158.047 -990.825 -248.087 -31.0191 -248.087 1152.96C-248.087 2336.94 -158.047 3296.75 -46.9767 3296.75Z" fill="#001C30"/>
<path d="M197.51 4011.34C308.58 4011.34 398.62 3051.54 398.62 1867.56C398.62 683.576 308.58 -276.23 197.51 -276.23C86.44 -276.23 -3.59998 683.576 -3.59998 1867.56C-3.59998 3051.54 86.44 4011.34 197.51 4011.34Z" fill="#00CC99"/>
<path d="M206.523 5344.45C317.593 5344.45 407.633 4384.65 407.633 3200.67C407.633 2016.69 317.593 1056.88 206.523 1056.88C95.4534 1056.88 5.41333 2016.69 5.41333 3200.67C5.41333 4384.65 95.4534 5344.45 206.523 5344.45Z" fill="#00CC99"/>
<path d="M376.65 3350.79C487.72 3350.79 577.76 2390.99 577.76 1207.01C577.76 23.0258 487.72 -936.78 376.65 -936.78C265.58 -936.78 175.54 23.0258 175.54 1207.01C175.54 2390.99 265.58 3350.79 376.65 3350.79Z" fill="#001C30"/>
<path d="M219.48 2900.42C330.55 2900.42 420.59 1940.61 420.59 756.631C420.59 -427.349 330.55 -1387.15 219.48 -1387.15C108.41 -1387.15 18.37 -427.349 18.37 756.631C18.37 1940.61 108.41 2900.42 219.48 2900.42Z" fill="#00CC99"/>
</g>
</g>
<defs>
<filter id="filter0_f_4_324" x="-570.087" y="-1709.15" width="1469.85" height="7375.61" filterUnits="userSpaceOnUse" color-interpolation-filters="sRGB">
<feFlood flood-opacity="0" result="BackgroundImageFix"/>
<feBlend mode="normal" in="SourceGraphic" in2="BackgroundImageFix" result="shape"/>
<feGaussianBlur stdDeviation="161" result="effect1_foregroundBlur_4_324"/>
</filter>
<clipPath id="clip0_4_324">
<rect width="507" height="3603" fill="white" transform="translate(-105)"/>
</clipPath>
</defs>
</svg>
