<svg width="126" height="43" viewBox="0 0 126 43" fill="none" xmlns="http://www.w3.org/2000/svg">
<path d="M20.9823 31C20.7956 31 20.6369 30.944 20.5063 30.832C20.3943 30.7013 20.3383 30.5427 20.3383 30.356V11.764C20.3383 11.5773 20.3943 11.428 20.5063 11.316C20.6369 11.1853 20.7956 11.12 20.9823 11.12H22.2983C22.5036 11.12 22.6623 11.1853 22.7743 11.316C22.8863 11.428 22.9423 11.5773 22.9423 11.764V30.356C22.9423 30.5427 22.8863 30.7013 22.7743 30.832C22.6623 30.944 22.5036 31 22.2983 31H20.9823ZM28.0363 31C27.8496 31 27.691 30.944 27.5603 30.832C27.4483 30.7013 27.3923 30.5427 27.3923 30.356V17.084C27.3923 16.8973 27.4483 16.748 27.5603 16.636C27.691 16.5053 27.8496 16.44 28.0363 16.44H29.3803C29.567 16.44 29.7163 16.5053 29.8283 16.636C29.9403 16.748 29.9963 16.8973 29.9963 17.084V30.356C29.9963 30.5427 29.9403 30.7013 29.8283 30.832C29.7163 30.944 29.567 31 29.3803 31H28.0363ZM27.8123 13.724C27.6256 13.724 27.467 13.668 27.3363 13.556C27.2243 13.4253 27.1683 13.2667 27.1683 13.08V11.568C27.1683 11.3813 27.2243 11.232 27.3363 11.12C27.467 10.9893 27.6256 10.924 27.8123 10.924H29.5763C29.763 10.924 29.9123 10.9893 30.0243 11.12C30.155 11.232 30.2203 11.3813 30.2203 11.568V13.08C30.2203 13.2667 30.155 13.4253 30.0243 13.556C29.9123 13.668 29.763 13.724 29.5763 13.724H27.8123ZM41.3696 31.28C40.2496 31.28 39.3162 31.084 38.5696 30.692C37.8229 30.2813 37.2256 29.7773 36.7776 29.18V30.356C36.7776 30.5427 36.7122 30.7013 36.5816 30.832C36.4696 30.944 36.3202 31 36.1336 31H34.8456C34.6589 31 34.5002 30.944 34.3696 30.832C34.2576 30.7013 34.2016 30.5427 34.2016 30.356V11.764C34.2016 11.5773 34.2576 11.428 34.3696 11.316C34.5002 11.1853 34.6589 11.12 34.8456 11.12H36.1896C36.3949 11.12 36.5536 11.1853 36.6656 11.316C36.7776 11.428 36.8336 11.5773 36.8336 11.764V18.204C37.3002 17.6253 37.8976 17.14 38.6256 16.748C39.3722 16.356 40.2869 16.16 41.3696 16.16C42.4149 16.16 43.3016 16.3467 44.0296 16.72C44.7762 17.0747 45.3829 17.5693 45.8496 18.204C46.3349 18.8387 46.6989 19.5573 46.9416 20.36C47.1842 21.1627 47.3149 22.0027 47.3336 22.88C47.3522 23.1787 47.3616 23.4587 47.3616 23.72C47.3616 23.9813 47.3522 24.2613 47.3336 24.56C47.3149 25.456 47.1842 26.3053 46.9416 27.108C46.6989 27.9107 46.3349 28.6293 45.8496 29.264C45.3829 29.88 44.7762 30.3747 44.0296 30.748C43.3016 31.1027 42.4149 31.28 41.3696 31.28ZM40.7816 29.012C41.7522 29.012 42.5082 28.8067 43.0496 28.396C43.6096 27.9667 44.0109 27.416 44.2536 26.744C44.4962 26.0533 44.6362 25.316 44.6736 24.532C44.6922 23.9907 44.6922 23.4493 44.6736 22.908C44.6362 22.124 44.4962 21.396 44.2536 20.724C44.0109 20.0333 43.6096 19.4827 43.0496 19.072C42.5082 18.6427 41.7522 18.428 40.7816 18.428C39.9042 18.428 39.1762 18.6333 38.5976 19.044C38.0189 19.4547 37.5802 19.9773 37.2816 20.612C37.0016 21.2467 36.8522 21.8907 36.8336 22.544C36.8149 22.8427 36.8056 23.2067 36.8056 23.636C36.8056 24.0467 36.8149 24.4013 36.8336 24.7C36.8709 25.3907 37.0202 26.072 37.2816 26.744C37.5616 27.3973 37.9816 27.9387 38.5416 28.368C39.1202 28.7973 39.8669 29.012 40.7816 29.012ZM51.4699 31C51.2832 31 51.1246 30.944 50.9939 30.832C50.8819 30.7013 50.8259 30.5427 50.8259 30.356V17.112C50.8259 16.9253 50.8819 16.7667 50.9939 16.636C51.1246 16.5053 51.2832 16.44 51.4699 16.44H52.7579C52.9446 16.44 53.1032 16.5053 53.2339 16.636C53.3646 16.7667 53.4299 16.9253 53.4299 17.112V18.344C53.8032 17.7093 54.3166 17.2333 54.9699 16.916C55.6232 16.5987 56.4072 16.44 57.3219 16.44H58.4419C58.6286 16.44 58.7779 16.5053 58.8899 16.636C59.0019 16.748 59.0579 16.8973 59.0579 17.084V18.232C59.0579 18.4187 59.0019 18.568 58.8899 18.68C58.7779 18.792 58.6286 18.848 58.4419 18.848H56.7619C55.7539 18.848 54.9606 19.1467 54.3819 19.744C53.8032 20.3227 53.5139 21.116 53.5139 22.124V30.356C53.5139 30.5427 53.4486 30.7013 53.3179 30.832C53.1872 30.944 53.0286 31 52.8419 31H51.4699ZM65.3039 31.28C64.3705 31.28 63.5212 31.0933 62.7559 30.72C61.9905 30.3467 61.3745 29.8427 60.9079 29.208C60.4412 28.5733 60.2079 27.8547 60.2079 27.052C60.2079 25.764 60.7305 24.7373 61.7759 23.972C62.8212 23.2067 64.1839 22.7027 65.8639 22.46L70.0359 21.872V21.06C70.0359 20.164 69.7745 19.464 69.2519 18.96C68.7479 18.456 67.9172 18.204 66.7599 18.204C65.9199 18.204 65.2385 18.372 64.7159 18.708C64.2119 19.044 63.8572 19.4733 63.6519 19.996C63.5399 20.276 63.3439 20.416 63.0639 20.416H61.8039C61.5985 20.416 61.4399 20.36 61.3279 20.248C61.2345 20.1173 61.1879 19.968 61.1879 19.8C61.1879 19.52 61.2905 19.1747 61.4959 18.764C61.7199 18.3533 62.0559 17.952 62.5039 17.56C62.9519 17.168 63.5212 16.8413 64.2119 16.58C64.9212 16.3 65.7799 16.16 66.7879 16.16C67.9079 16.16 68.8505 16.3093 69.6159 16.608C70.3812 16.888 70.9785 17.2707 71.4079 17.756C71.8559 18.2413 72.1732 18.792 72.3599 19.408C72.5652 20.024 72.6679 20.6493 72.6679 21.284V30.356C72.6679 30.5427 72.6025 30.7013 72.4719 30.832C72.3599 30.944 72.2105 31 72.0239 31H70.7359C70.5305 31 70.3719 30.944 70.2599 30.832C70.1479 30.7013 70.0919 30.5427 70.0919 30.356V29.152C69.8492 29.488 69.5225 29.824 69.1119 30.16C68.7012 30.4773 68.1879 30.748 67.5719 30.972C66.9559 31.1773 66.1999 31.28 65.3039 31.28ZM65.8919 29.18C66.6572 29.18 67.3572 29.0213 67.9919 28.704C68.6265 28.368 69.1212 27.8547 69.4759 27.164C69.8492 26.4733 70.0359 25.6053 70.0359 24.56V23.776L66.7879 24.252C65.4625 24.4387 64.4639 24.756 63.7919 25.204C63.1199 25.6333 62.7839 26.184 62.7839 26.856C62.7839 27.3787 62.9332 27.8173 63.2319 28.172C63.5492 28.508 63.9412 28.76 64.4079 28.928C64.8932 29.096 65.3879 29.18 65.8919 29.18ZM77.3371 31C77.1504 31 76.9918 30.944 76.8611 30.832C76.7491 30.7013 76.6931 30.5427 76.6931 30.356V17.084C76.6931 16.8973 76.7491 16.748 76.8611 16.636C76.9918 16.5053 77.1504 16.44 77.3371 16.44H78.6811C78.8678 16.44 79.0171 16.5053 79.1291 16.636C79.2411 16.748 79.2971 16.8973 79.2971 17.084V30.356C79.2971 30.5427 79.2411 30.7013 79.1291 30.832C79.0171 30.944 78.8678 31 78.6811 31H77.3371ZM77.1131 13.724C76.9264 13.724 76.7678 13.668 76.6371 13.556C76.5251 13.4253 76.4691 13.2667 76.4691 13.08V11.568C76.4691 11.3813 76.5251 11.232 76.6371 11.12C76.7678 10.9893 76.9264 10.924 77.1131 10.924H78.8771C79.0638 10.924 79.2131 10.9893 79.3251 11.12C79.4558 11.232 79.5211 11.3813 79.5211 11.568V13.08C79.5211 13.2667 79.4558 13.4253 79.3251 13.556C79.2131 13.668 79.0638 13.724 78.8771 13.724H77.1131ZM89.325 31.28C87.4024 31.28 85.8717 30.692 84.733 29.516C83.5944 28.3213 82.969 26.6973 82.857 24.644C82.8384 24.4013 82.829 24.0933 82.829 23.72C82.829 23.328 82.8384 23.0107 82.857 22.768C82.9317 21.4427 83.2397 20.2853 83.781 19.296C84.3224 18.288 85.0597 17.5133 85.993 16.972C86.945 16.4307 88.0557 16.16 89.325 16.16C90.7437 16.16 91.929 16.4587 92.881 17.056C93.8517 17.6533 94.589 18.5027 95.093 19.604C95.597 20.7053 95.849 21.9933 95.849 23.468V23.944C95.849 24.1493 95.7837 24.308 95.653 24.42C95.541 24.532 95.3917 24.588 95.205 24.588H85.517C85.517 24.6067 85.517 24.644 85.517 24.7C85.517 24.756 85.517 24.8027 85.517 24.84C85.5544 25.6053 85.7224 26.324 86.021 26.996C86.3197 27.6493 86.749 28.1813 87.309 28.592C87.869 29.0027 88.541 29.208 89.325 29.208C89.997 29.208 90.557 29.1053 91.005 28.9C91.453 28.6947 91.817 28.4707 92.097 28.228C92.377 27.9667 92.5637 27.7707 92.657 27.64C92.825 27.3973 92.9557 27.2573 93.049 27.22C93.1424 27.164 93.2917 27.136 93.497 27.136H94.841C95.0277 27.136 95.177 27.192 95.289 27.304C95.4197 27.3973 95.4757 27.5373 95.457 27.724C95.4384 28.004 95.289 28.3493 95.009 28.76C94.729 29.152 94.3277 29.544 93.805 29.936C93.2824 30.328 92.6477 30.6547 91.901 30.916C91.1544 31.1587 90.2957 31.28 89.325 31.28ZM85.517 22.656H93.189V22.572C93.189 21.732 93.0304 20.9853 92.713 20.332C92.4144 19.6787 91.9757 19.1653 91.397 18.792C90.8184 18.4 90.1277 18.204 89.325 18.204C88.5224 18.204 87.8317 18.4 87.253 18.792C86.693 19.1653 86.2637 19.6787 85.965 20.332C85.6664 20.9853 85.517 21.732 85.517 22.572V22.656ZM99.841 31C99.6543 31 99.4957 30.944 99.365 30.832C99.253 30.7013 99.197 30.5427 99.197 30.356V17.112C99.197 16.9253 99.253 16.7667 99.365 16.636C99.4957 16.5053 99.6543 16.44 99.841 16.44H101.129C101.316 16.44 101.474 16.5053 101.605 16.636C101.736 16.7667 101.801 16.9253 101.801 17.112V18.344C102.174 17.7093 102.688 17.2333 103.341 16.916C103.994 16.5987 104.778 16.44 105.693 16.44H106.813C107 16.44 107.149 16.5053 107.261 16.636C107.373 16.748 107.429 16.8973 107.429 17.084V18.232C107.429 18.4187 107.373 18.568 107.261 18.68C107.149 18.792 107 18.848 106.813 18.848H105.133C104.125 18.848 103.332 19.1467 102.753 19.744C102.174 20.3227 101.885 21.116 101.885 22.124V30.356C101.885 30.5427 101.82 30.7013 101.689 30.832C101.558 30.944 101.4 31 101.213 31H99.841Z" fill="url(#paint0_linear_134_301)"/>
<path d="M1 43V0H-1V43H1Z" fill="url(#paint1_linear_134_301)" mask="url(#path-1-inside-1_134_301)"/>
<defs>
<linearGradient id="paint0_linear_134_301" x1="25" y1="-13" x2="84.1608" y2="78.6126" gradientUnits="userSpaceOnUse">
<stop stop-color="#001C30"/>
<stop offset="1" stop-color="#64CCC5"/>
</linearGradient>
<linearGradient id="paint1_linear_134_301" x1="63" y1="0" x2="63" y2="43" gradientUnits="userSpaceOnUse">
<stop stop-color="#00CC99"/>
<stop offset="1" stop-color="#00CC99" stop-opacity="0"/>
</linearGradient>
</defs>
</svg>
