<svg width="19" height="16" viewBox="0 0 19 16" fill="none" xmlns="http://www.w3.org/2000/svg">
<path d="M0.5 4L8.39 9.26C8.71866 9.47928 9.1049 9.5963 9.5 9.5963C9.8951 9.5963 10.2813 9.47928 10.61 9.26L18.5 4M2.5 15H16.5C17.0304 15 17.5391 14.7893 17.9142 14.4142C18.2893 14.0391 18.5 13.5304 18.5 13V3C18.5 2.46957 18.2893 1.96086 17.9142 1.58579C17.5391 1.21071 17.0304 1 16.5 1H2.5C1.96957 1 1.46086 1.21071 1.08579 1.58579C0.710714 1.96086 0.5 2.46957 0.5 3V13C0.5 13.5304 0.710714 14.0391 1.08579 14.4142C1.46086 14.7893 1.96957 15 2.5 15Z" stroke="white" stroke-opacity="0.75" stroke-linecap="round" stroke-linejoin="round"/>
</svg>
