<svg width="93" height="32" viewBox="0 0 93 32" fill="none" xmlns="http://www.w3.org/2000/svg">
<path d="M20.4861 24C20.3394 24 20.2147 23.956 20.1121 23.868C20.0241 23.7653 19.9801 23.6407 19.9801 23.494V8.886C19.9801 8.73933 20.0241 8.622 20.1121 8.534C20.2147 8.43133 20.3394 8.38 20.4861 8.38H21.5201C21.6814 8.38 21.8061 8.43133 21.8941 8.534C21.9821 8.622 22.0261 8.73933 22.0261 8.886V23.494C22.0261 23.6407 21.9821 23.7653 21.8941 23.868C21.8061 23.956 21.6814 24 21.5201 24H20.4861ZM26.0285 24C25.8819 24 25.7572 23.956 25.6545 23.868C25.5665 23.7653 25.5225 23.6407 25.5225 23.494V13.066C25.5225 12.9193 25.5665 12.802 25.6545 12.714C25.7572 12.6113 25.8819 12.56 26.0285 12.56H27.0845C27.2312 12.56 27.3485 12.6113 27.4365 12.714C27.5245 12.802 27.5685 12.9193 27.5685 13.066V23.494C27.5685 23.6407 27.5245 23.7653 27.4365 23.868C27.3485 23.956 27.2312 24 27.0845 24H26.0285ZM25.8525 10.426C25.7059 10.426 25.5812 10.382 25.4785 10.294C25.3905 10.1913 25.3465 10.0667 25.3465 9.92V8.732C25.3465 8.58533 25.3905 8.468 25.4785 8.38C25.5812 8.27733 25.7059 8.226 25.8525 8.226H27.2385C27.3852 8.226 27.5025 8.27733 27.5905 8.38C27.6932 8.468 27.7445 8.58533 27.7445 8.732V9.92C27.7445 10.0667 27.6932 10.1913 27.5905 10.294C27.5025 10.382 27.3852 10.426 27.2385 10.426H25.8525ZM36.5047 24.22C35.6247 24.22 34.8913 24.066 34.3047 23.758C33.718 23.4353 33.2487 23.0393 32.8967 22.57V23.494C32.8967 23.6407 32.8453 23.7653 32.7427 23.868C32.6547 23.956 32.5373 24 32.3907 24H31.3787C31.232 24 31.1073 23.956 31.0047 23.868C30.9167 23.7653 30.8727 23.6407 30.8727 23.494V8.886C30.8727 8.73933 30.9167 8.622 31.0047 8.534C31.1073 8.43133 31.232 8.38 31.3787 8.38H32.4347C32.596 8.38 32.7207 8.43133 32.8087 8.534C32.8967 8.622 32.9407 8.73933 32.9407 8.886V13.946C33.3073 13.4913 33.7767 13.11 34.3487 12.802C34.9353 12.494 35.654 12.34 36.5047 12.34C37.326 12.34 38.0227 12.4867 38.5947 12.78C39.1813 13.0587 39.658 13.4473 40.0247 13.946C40.406 14.4447 40.692 15.0093 40.8827 15.64C41.0733 16.2707 41.176 16.9307 41.1907 17.62C41.2053 17.8547 41.2127 18.0747 41.2127 18.28C41.2127 18.4853 41.2053 18.7053 41.1907 18.94C41.176 19.644 41.0733 20.3113 40.8827 20.942C40.692 21.5727 40.406 22.1373 40.0247 22.636C39.658 23.12 39.1813 23.5087 38.5947 23.802C38.0227 24.0807 37.326 24.22 36.5047 24.22ZM36.0427 22.438C36.8053 22.438 37.3993 22.2767 37.8247 21.954C38.2647 21.6167 38.58 21.184 38.7707 20.656C38.9613 20.1133 39.0713 19.534 39.1007 18.918C39.1153 18.4927 39.1153 18.0673 39.1007 17.642C39.0713 17.026 38.9613 16.454 38.7707 15.926C38.58 15.3833 38.2647 14.9507 37.8247 14.628C37.3993 14.2907 36.8053 14.122 36.0427 14.122C35.3533 14.122 34.7813 14.2833 34.3267 14.606C33.872 14.9287 33.5273 15.3393 33.2927 15.838C33.0727 16.3367 32.9553 16.8427 32.9407 17.356C32.926 17.5907 32.9187 17.8767 32.9187 18.214C32.9187 18.5367 32.926 18.8153 32.9407 19.05C32.97 19.5927 33.0873 20.128 33.2927 20.656C33.5127 21.1693 33.8427 21.5947 34.2827 21.932C34.7373 22.2693 35.324 22.438 36.0427 22.438ZM44.4406 24C44.294 24 44.1693 23.956 44.0666 23.868C43.9786 23.7653 43.9346 23.6407 43.9346 23.494V13.088C43.9346 12.9413 43.9786 12.8167 44.0666 12.714C44.1693 12.6113 44.294 12.56 44.4406 12.56H45.4526C45.5993 12.56 45.724 12.6113 45.8266 12.714C45.9293 12.8167 45.9806 12.9413 45.9806 13.088V14.056C46.274 13.5573 46.6773 13.1833 47.1906 12.934C47.704 12.6847 48.32 12.56 49.0386 12.56H49.9186C50.0653 12.56 50.1826 12.6113 50.2706 12.714C50.3586 12.802 50.4026 12.9193 50.4026 13.066V13.968C50.4026 14.1147 50.3586 14.232 50.2706 14.32C50.1826 14.408 50.0653 14.452 49.9186 14.452H48.5986C47.8066 14.452 47.1833 14.6867 46.7286 15.156C46.274 15.6107 46.0466 16.234 46.0466 17.026V23.494C46.0466 23.6407 45.9953 23.7653 45.8926 23.868C45.79 23.956 45.6653 24 45.5186 24H44.4406ZM55.3102 24.22C54.5769 24.22 53.9095 24.0733 53.3082 23.78C52.7069 23.4867 52.2229 23.0907 51.8562 22.592C51.4895 22.0933 51.3062 21.5287 51.3062 20.898C51.3062 19.886 51.7169 19.0793 52.5382 18.478C53.3595 17.8767 54.4302 17.4807 55.7502 17.29L59.0282 16.828V16.19C59.0282 15.486 58.8229 14.936 58.4122 14.54C58.0162 14.144 57.3635 13.946 56.4542 13.946C55.7942 13.946 55.2589 14.078 54.8482 14.342C54.4522 14.606 54.1735 14.9433 54.0122 15.354C53.9242 15.574 53.7702 15.684 53.5502 15.684H52.5602C52.3989 15.684 52.2742 15.64 52.1862 15.552C52.1129 15.4493 52.0762 15.332 52.0762 15.2C52.0762 14.98 52.1569 14.7087 52.3182 14.386C52.4942 14.0633 52.7582 13.748 53.1102 13.44C53.4622 13.132 53.9095 12.8753 54.4522 12.67C55.0095 12.45 55.6842 12.34 56.4762 12.34C57.3562 12.34 58.0969 12.4573 58.6982 12.692C59.2995 12.912 59.7689 13.2127 60.1062 13.594C60.4582 13.9753 60.7075 14.408 60.8542 14.892C61.0155 15.376 61.0962 15.8673 61.0962 16.366V23.494C61.0962 23.6407 61.0449 23.7653 60.9422 23.868C60.8542 23.956 60.7369 24 60.5902 24H59.5782C59.4169 24 59.2922 23.956 59.2042 23.868C59.1162 23.7653 59.0722 23.6407 59.0722 23.494V22.548C58.8815 22.812 58.6249 23.076 58.3022 23.34C57.9795 23.5893 57.5762 23.802 57.0922 23.978C56.6082 24.1393 56.0142 24.22 55.3102 24.22ZM55.7722 22.57C56.3735 22.57 56.9235 22.4453 57.4222 22.196C57.9209 21.932 58.3095 21.5287 58.5882 20.986C58.8815 20.4433 59.0282 19.7613 59.0282 18.94V18.324L56.4762 18.698C55.4349 18.8447 54.6502 19.094 54.1222 19.446C53.5942 19.7833 53.3302 20.216 53.3302 20.744C53.3302 21.1547 53.4475 21.4993 53.6822 21.778C53.9315 22.042 54.2395 22.24 54.6062 22.372C54.9875 22.504 55.3762 22.57 55.7722 22.57ZM64.7649 24C64.6182 24 64.4935 23.956 64.3909 23.868C64.3029 23.7653 64.2589 23.6407 64.2589 23.494V13.066C64.2589 12.9193 64.3029 12.802 64.3909 12.714C64.4935 12.6113 64.6182 12.56 64.7649 12.56H65.8209C65.9675 12.56 66.0849 12.6113 66.1729 12.714C66.2609 12.802 66.3049 12.9193 66.3049 13.066V23.494C66.3049 23.6407 66.2609 23.7653 66.1729 23.868C66.0849 23.956 65.9675 24 65.8209 24H64.7649ZM64.5889 10.426C64.4422 10.426 64.3175 10.382 64.2149 10.294C64.1269 10.1913 64.0829 10.0667 64.0829 9.92V8.732C64.0829 8.58533 64.1269 8.468 64.2149 8.38C64.3175 8.27733 64.4422 8.226 64.5889 8.226H65.9749C66.1215 8.226 66.2389 8.27733 66.3269 8.38C66.4295 8.468 66.4809 8.58533 66.4809 8.732V9.92C66.4809 10.0667 66.4295 10.1913 66.3269 10.294C66.2389 10.382 66.1215 10.426 65.9749 10.426H64.5889ZM74.184 24.22C72.6733 24.22 71.4706 23.758 70.576 22.834C69.6813 21.8953 69.19 20.6193 69.102 19.006C69.0873 18.8153 69.08 18.5733 69.08 18.28C69.08 17.972 69.0873 17.7227 69.102 17.532C69.1606 16.4907 69.4026 15.5813 69.828 14.804C70.2533 14.012 70.8326 13.4033 71.566 12.978C72.314 12.5527 73.1866 12.34 74.184 12.34C75.2986 12.34 76.23 12.5747 76.978 13.044C77.7406 13.5133 78.32 14.1807 78.716 15.046C79.112 15.9113 79.31 16.9233 79.31 18.082V18.456C79.31 18.6173 79.2586 18.742 79.156 18.83C79.068 18.918 78.9506 18.962 78.804 18.962H71.192C71.192 18.9767 71.192 19.006 71.192 19.05C71.192 19.094 71.192 19.1307 71.192 19.16C71.2213 19.7613 71.3533 20.326 71.588 20.854C71.8226 21.3673 72.16 21.7853 72.6 22.108C73.04 22.4307 73.568 22.592 74.184 22.592C74.712 22.592 75.152 22.5113 75.504 22.35C75.856 22.1887 76.142 22.0127 76.362 21.822C76.582 21.6167 76.7286 21.4627 76.802 21.36C76.934 21.1693 77.0366 21.0593 77.11 21.03C77.1833 20.986 77.3006 20.964 77.462 20.964H78.518C78.6646 20.964 78.782 21.008 78.87 21.096C78.9726 21.1693 79.0166 21.2793 79.002 21.426C78.9873 21.646 78.87 21.9173 78.65 22.24C78.43 22.548 78.1146 22.856 77.704 23.164C77.2933 23.472 76.7946 23.7287 76.208 23.934C75.6213 24.1247 74.9466 24.22 74.184 24.22ZM71.192 17.444H77.22V17.378C77.22 16.718 77.0953 16.1313 76.846 15.618C76.6113 15.1047 76.2666 14.7013 75.812 14.408C75.3573 14.1 74.8146 13.946 74.184 13.946C73.5533 13.946 73.0106 14.1 72.556 14.408C72.116 14.7013 71.7786 15.1047 71.544 15.618C71.3093 16.1313 71.192 16.718 71.192 17.378V17.444ZM82.4465 24C82.2998 24 82.1752 23.956 82.0725 23.868C81.9845 23.7653 81.9405 23.6407 81.9405 23.494V13.088C81.9405 12.9413 81.9845 12.8167 82.0725 12.714C82.1752 12.6113 82.2998 12.56 82.4465 12.56H83.4585C83.6052 12.56 83.7298 12.6113 83.8325 12.714C83.9352 12.8167 83.9865 12.9413 83.9865 13.088V14.056C84.2798 13.5573 84.6832 13.1833 85.1965 12.934C85.7098 12.6847 86.3258 12.56 87.0445 12.56H87.9245C88.0712 12.56 88.1885 12.6113 88.2765 12.714C88.3645 12.802 88.4085 12.9193 88.4085 13.066V13.968C88.4085 14.1147 88.3645 14.232 88.2765 14.32C88.1885 14.408 88.0712 14.452 87.9245 14.452H86.6045C85.8125 14.452 85.1892 14.6867 84.7345 15.156C84.2798 15.6107 84.0525 16.234 84.0525 17.026V23.494C84.0525 23.6407 84.0012 23.7653 83.8985 23.868C83.7958 23.956 83.6712 24 83.5245 24H82.4465Z" fill="url(#paint0_linear_128_160)"/>
<path d="M1 32V0H-1V32H1Z" fill="url(#paint1_linear_128_160)" mask="url(#path-1-inside-1_128_160)"/>
<defs>
<linearGradient id="paint0_linear_128_160" x1="10.0714" y1="-11.1818" x2="48.0737" y2="74.1799" gradientUnits="userSpaceOnUse">
<stop stop-color="#001C30"/>
<stop offset="1" stop-color="#438681"/>
</linearGradient>
<linearGradient id="paint1_linear_128_160" x1="46.5" y1="0" x2="46.5" y2="32" gradientUnits="userSpaceOnUse">
<stop stop-color="#001C30"/>
<stop offset="0.385505" stop-color="#006058" stop-opacity="0.614495"/>
<stop offset="1" stop-color="#00CC99" stop-opacity="0"/>
</linearGradient>
</defs>
</svg>
