<svg width="20" height="20" viewBox="0 0 20 20" fill="none" xmlns="http://www.w3.org/2000/svg">
<path fill-rule="evenodd" clip-rule="evenodd" d="M5 6.75C5 6.55109 5.07525 6.36032 5.20921 6.21967C5.34316 6.07902 5.52485 6 5.71429 6H14.2857C14.4752 6 14.6568 6.07902 14.7908 6.21967C14.9247 6.36032 15 6.55109 15 6.75C15 6.94891 14.9247 7.13968 14.7908 7.28033C14.6568 7.42098 14.4752 7.5 14.2857 7.5H5.71429C5.52485 7.5 5.34316 7.42098 5.20921 7.28033C5.07525 7.13968 5 6.94891 5 6.75ZM5 10.5C5 10.3011 5.07525 10.1103 5.20921 9.96967C5.34316 9.82902 5.52485 9.75 5.71429 9.75H14.2857C14.4752 9.75 14.6568 9.82902 14.7908 9.96967C14.9247 10.1103 15 10.3011 15 10.5C15 10.6989 14.9247 10.8897 14.7908 11.0303C14.6568 11.171 14.4752 11.25 14.2857 11.25H5.71429C5.52485 11.25 5.34316 11.171 5.20921 11.0303C5.07525 10.8897 5 10.6989 5 10.5ZM5 14.25C5 14.0511 5.07525 13.8603 5.20921 13.7197C5.34316 13.579 5.52485 13.5 5.71429 13.5H14.2857C14.4752 13.5 14.6568 13.579 14.7908 13.7197C14.9247 13.8603 15 14.0511 15 14.25C15 14.4489 14.9247 14.6397 14.7908 14.7803C14.6568 14.921 14.4752 15 14.2857 15H5.71429C5.52485 15 5.34316 14.921 5.20921 14.7803C5.07525 14.6397 5 14.4489 5 14.25Z" fill="#001C30"/>
<rect x="0.5" y="0.5" width="19" height="19" rx="9.5" stroke="#001C30"/>
</svg>
