<svg width="12" height="13" viewBox="0 0 12 13" fill="none" xmlns="http://www.w3.org/2000/svg">
<path d="M7.5 6.5C7.5 6.89782 7.34196 7.27936 7.06066 7.56066C6.77936 7.84196 6.39782 8 6 8C5.60218 8 5.22064 7.84196 4.93934 7.56066C4.65804 7.27936 4.5 6.89782 4.5 6.5C4.5 6.10218 4.65804 5.72064 4.93934 5.43934C5.22064 5.15804 5.60218 5 6 5C6.39782 5 6.77936 5.15804 7.06066 5.43934C7.34196 5.72064 7.5 6.10218 7.5 6.5Z" stroke="white" stroke-linecap="round" stroke-linejoin="round"/>
<path d="M1.229 6.5C1.866 4.4715 3.7615 3 6 3C8.239 3 10.134 4.4715 10.771 6.5C10.134 8.5285 8.239 10 6 10C3.7615 10 1.866 8.5285 1.229 6.5Z" stroke="white" stroke-linecap="round" stroke-linejoin="round"/>
</svg>
