<svg width="12" height="13" viewBox="0 0 12 13" fill="none" xmlns="http://www.w3.org/2000/svg">
<path d="M2.15902 3.65902C1.95008 3.86795 1.78435 4.11599 1.67127 4.38898C1.5582 4.66196 1.5 4.95454 1.5 5.25002C1.5 5.5455 1.5582 5.83808 1.67127 6.11106C1.78435 6.38405 1.95008 6.63209 2.15902 6.84102L6.00002 10.682L9.84102 6.84102C10.263 6.41906 10.5 5.84676 10.5 5.25002C10.5 4.65328 10.263 4.08098 9.84102 3.65902C9.41906 3.23706 8.84676 3.00001 8.25002 3.00001C7.65328 3.00001 7.08098 3.23706 6.65902 3.65902L6.00002 4.31802L5.34102 3.65902C5.13209 3.45008 4.88405 3.28435 4.61106 3.17127C4.33808 3.0582 4.0455 3 3.75002 3C3.45454 3 3.16196 3.0582 2.88898 3.17127C2.61599 3.28435 2.36795 3.45008 2.15902 3.65902Z" stroke="white" stroke-linecap="round" stroke-linejoin="round"/>
</svg>
